<?xml version="1.0" encoding="utf-8" standalone="no"?>
<!DOCTYPE svg PUBLIC "-//W3C//DTD SVG 1.1//EN"
  "http://www.w3.org/Graphics/SVG/1.1/DTD/svg11.dtd">
<svg height="460.8pt" version="1.1" viewBox="0 0 737.28 460.8" width="737.28pt" xmlns="http://www.w3.org/2000/svg" xmlns:xlink="http://www.w3.org/1999/xlink">
 <metadata>
  <rdf:RDF xmlns:cc="http://creativecommons.org/ns#" xmlns:dc="http://purl.org/dc/elements/1.1/" xmlns:rdf="http://www.w3.org/1999/02/22-rdf-syntax-ns#">
   <cc:Work>
    <dc:type rdf:resource="http://purl.org/dc/dcmitype/StillImage"/>
    <dc:date>2021-11-09T01:52:44.417084</dc:date>
    <dc:format>image/svg+xml</dc:format>
    <dc:creator>
     <cc:Agent>
      <dc:title>Matplotlib v3.4.3, https://matplotlib.org/</dc:title>
     </cc:Agent>
    </dc:creator>
   </cc:Work>
  </rdf:RDF>
 </metadata>
 <defs>
  <style type="text/css">*{stroke-linecap:butt;stroke-linejoin:round;}</style>
 </defs>
 <g id="figure_1">
  <g id="patch_1">
   <path d="M 0 460.8 
L 737.28 460.8 
L 737.28 0 
L 0 0 
z
" style="fill:#ffffff;"/>
  </g>
  <g id="axes_1">
   <g id="patch_2">
    <path d="M 19.963856 181.165354 
L 296.365354 181.165354 
L 296.365354 14.594646 
L 19.963856 14.594646 
z
" style="fill:#ffffff;"/>
   </g>
   <g id="matplotlib.axis_1">
    <g id="xtick_1">
     <g id="line2d_1">
      <path clip-path="url(#p8efbcc5279)" d="M 38.651379 181.165354 
L 38.651379 14.594646 
" style="fill:none;stroke:#000000;stroke-linecap:square;stroke-opacity:0.1;stroke-width:0.5;"/>
     </g>
     <g id="line2d_2">
      <defs>
       <path d="M 0 0 
L 0 -2.5 
" id="m5d6f11f6f8" style="stroke:#000000;stroke-width:0.5;"/>
      </defs>
      <g>
       <use style="stroke:#000000;stroke-width:0.5;" x="38.651379" xlink:href="#m5d6f11f6f8" y="181.165354"/>
      </g>
     </g>
     <g id="text_1">
      <!-- $1995$ -->
      <g transform="translate(28.451379 190.744104)scale(0.08 -0.08)">
       <defs>
        <path d="M 794 531 
L 1825 531 
L 1825 4091 
L 703 3866 
L 703 4441 
L 1819 4666 
L 2450 4666 
L 2450 531 
L 3481 531 
L 3481 0 
L 794 0 
L 794 531 
z
" id="DejaVuSans-31" transform="scale(0.015625)"/>
        <path d="M 703 97 
L 703 672 
Q 941 559 1184 500 
Q 1428 441 1663 441 
Q 2288 441 2617 861 
Q 2947 1281 2994 2138 
Q 2813 1869 2534 1725 
Q 2256 1581 1919 1581 
Q 1219 1581 811 2004 
Q 403 2428 403 3163 
Q 403 3881 828 4315 
Q 1253 4750 1959 4750 
Q 2769 4750 3195 4129 
Q 3622 3509 3622 2328 
Q 3622 1225 3098 567 
Q 2575 -91 1691 -91 
Q 1453 -91 1209 -44 
Q 966 3 703 97 
z
M 1959 2075 
Q 2384 2075 2632 2365 
Q 2881 2656 2881 3163 
Q 2881 3666 2632 3958 
Q 2384 4250 1959 4250 
Q 1534 4250 1286 3958 
Q 1038 3666 1038 3163 
Q 1038 2656 1286 2365 
Q 1534 2075 1959 2075 
z
" id="DejaVuSans-39" transform="scale(0.015625)"/>
        <path d="M 691 4666 
L 3169 4666 
L 3169 4134 
L 1269 4134 
L 1269 2991 
Q 1406 3038 1543 3061 
Q 1681 3084 1819 3084 
Q 2600 3084 3056 2656 
Q 3513 2228 3513 1497 
Q 3513 744 3044 326 
Q 2575 -91 1722 -91 
Q 1428 -91 1123 -41 
Q 819 9 494 109 
L 494 744 
Q 775 591 1075 516 
Q 1375 441 1709 441 
Q 2250 441 2565 725 
Q 2881 1009 2881 1497 
Q 2881 1984 2565 2268 
Q 2250 2553 1709 2553 
Q 1456 2553 1204 2497 
Q 953 2441 691 2322 
L 691 4666 
z
" id="DejaVuSans-35" transform="scale(0.015625)"/>
       </defs>
       <use transform="translate(0 0.78125)" xlink:href="#DejaVuSans-31"/>
       <use transform="translate(63.623047 0.78125)" xlink:href="#DejaVuSans-39"/>
       <use transform="translate(127.246094 0.78125)" xlink:href="#DejaVuSans-39"/>
       <use transform="translate(190.869141 0.78125)" xlink:href="#DejaVuSans-35"/>
      </g>
     </g>
    </g>
    <g id="xtick_2">
     <g id="line2d_3">
      <path clip-path="url(#p8efbcc5279)" d="M 92.975572 181.165354 
L 92.975572 14.594646 
" style="fill:none;stroke:#000000;stroke-linecap:square;stroke-opacity:0.1;stroke-width:0.5;"/>
     </g>
     <g id="line2d_4">
      <g>
       <use style="stroke:#000000;stroke-width:0.5;" x="92.975572" xlink:href="#m5d6f11f6f8" y="181.165354"/>
      </g>
     </g>
     <g id="text_2">
      <!-- $2000$ -->
      <g transform="translate(82.775572 190.744104)scale(0.08 -0.08)">
       <defs>
        <path d="M 1228 531 
L 3431 531 
L 3431 0 
L 469 0 
L 469 531 
Q 828 903 1448 1529 
Q 2069 2156 2228 2338 
Q 2531 2678 2651 2914 
Q 2772 3150 2772 3378 
Q 2772 3750 2511 3984 
Q 2250 4219 1831 4219 
Q 1534 4219 1204 4116 
Q 875 4013 500 3803 
L 500 4441 
Q 881 4594 1212 4672 
Q 1544 4750 1819 4750 
Q 2544 4750 2975 4387 
Q 3406 4025 3406 3419 
Q 3406 3131 3298 2873 
Q 3191 2616 2906 2266 
Q 2828 2175 2409 1742 
Q 1991 1309 1228 531 
z
" id="DejaVuSans-32" transform="scale(0.015625)"/>
        <path d="M 2034 4250 
Q 1547 4250 1301 3770 
Q 1056 3291 1056 2328 
Q 1056 1369 1301 889 
Q 1547 409 2034 409 
Q 2525 409 2770 889 
Q 3016 1369 3016 2328 
Q 3016 3291 2770 3770 
Q 2525 4250 2034 4250 
z
M 2034 4750 
Q 2819 4750 3233 4129 
Q 3647 3509 3647 2328 
Q 3647 1150 3233 529 
Q 2819 -91 2034 -91 
Q 1250 -91 836 529 
Q 422 1150 422 2328 
Q 422 3509 836 4129 
Q 1250 4750 2034 4750 
z
" id="DejaVuSans-30" transform="scale(0.015625)"/>
       </defs>
       <use transform="translate(0 0.78125)" xlink:href="#DejaVuSans-32"/>
       <use transform="translate(63.623047 0.78125)" xlink:href="#DejaVuSans-30"/>
       <use transform="translate(127.246094 0.78125)" xlink:href="#DejaVuSans-30"/>
       <use transform="translate(190.869141 0.78125)" xlink:href="#DejaVuSans-30"/>
      </g>
     </g>
    </g>
    <g id="xtick_3">
     <g id="line2d_5">
      <path clip-path="url(#p8efbcc5279)" d="M 147.299766 181.165354 
L 147.299766 14.594646 
" style="fill:none;stroke:#000000;stroke-linecap:square;stroke-opacity:0.1;stroke-width:0.5;"/>
     </g>
     <g id="line2d_6">
      <g>
       <use style="stroke:#000000;stroke-width:0.5;" x="147.299766" xlink:href="#m5d6f11f6f8" y="181.165354"/>
      </g>
     </g>
     <g id="text_3">
      <!-- $2005$ -->
      <g transform="translate(137.099766 190.744104)scale(0.08 -0.08)">
       <use transform="translate(0 0.78125)" xlink:href="#DejaVuSans-32"/>
       <use transform="translate(63.623047 0.78125)" xlink:href="#DejaVuSans-30"/>
       <use transform="translate(127.246094 0.78125)" xlink:href="#DejaVuSans-30"/>
       <use transform="translate(190.869141 0.78125)" xlink:href="#DejaVuSans-35"/>
      </g>
     </g>
    </g>
    <g id="xtick_4">
     <g id="line2d_7">
      <path clip-path="url(#p8efbcc5279)" d="M 201.62396 181.165354 
L 201.62396 14.594646 
" style="fill:none;stroke:#000000;stroke-linecap:square;stroke-opacity:0.1;stroke-width:0.5;"/>
     </g>
     <g id="line2d_8">
      <g>
       <use style="stroke:#000000;stroke-width:0.5;" x="201.62396" xlink:href="#m5d6f11f6f8" y="181.165354"/>
      </g>
     </g>
     <g id="text_4">
      <!-- $2010$ -->
      <g transform="translate(191.42396 190.744104)scale(0.08 -0.08)">
       <use transform="translate(0 0.78125)" xlink:href="#DejaVuSans-32"/>
       <use transform="translate(63.623047 0.78125)" xlink:href="#DejaVuSans-30"/>
       <use transform="translate(127.246094 0.78125)" xlink:href="#DejaVuSans-31"/>
       <use transform="translate(190.869141 0.78125)" xlink:href="#DejaVuSans-30"/>
      </g>
     </g>
    </g>
    <g id="xtick_5">
     <g id="line2d_9">
      <path clip-path="url(#p8efbcc5279)" d="M 255.948154 181.165354 
L 255.948154 14.594646 
" style="fill:none;stroke:#000000;stroke-linecap:square;stroke-opacity:0.1;stroke-width:0.5;"/>
     </g>
     <g id="line2d_10">
      <g>
       <use style="stroke:#000000;stroke-width:0.5;" x="255.948154" xlink:href="#m5d6f11f6f8" y="181.165354"/>
      </g>
     </g>
     <g id="text_5">
      <!-- $2015$ -->
      <g transform="translate(245.748154 190.744104)scale(0.08 -0.08)">
       <use transform="translate(0 0.78125)" xlink:href="#DejaVuSans-32"/>
       <use transform="translate(63.623047 0.78125)" xlink:href="#DejaVuSans-30"/>
       <use transform="translate(127.246094 0.78125)" xlink:href="#DejaVuSans-31"/>
       <use transform="translate(190.869141 0.78125)" xlink:href="#DejaVuSans-35"/>
      </g>
     </g>
    </g>
   </g>
   <g id="matplotlib.axis_2">
    <g id="ytick_1">
     <g id="line2d_11">
      <path clip-path="url(#p8efbcc5279)" d="M 19.963856 181.165354 
L 296.365354 181.165354 
" style="fill:none;stroke:#000000;stroke-linecap:square;stroke-opacity:0.1;stroke-width:0.5;"/>
     </g>
     <g id="line2d_12">
      <defs>
       <path d="M 0 0 
L 2.5 0 
" id="m05394a8d20" style="stroke:#000000;stroke-width:0.5;"/>
      </defs>
      <g>
       <use style="stroke:#000000;stroke-width:0.5;" x="19.963856" xlink:href="#m05394a8d20" y="181.165354"/>
      </g>
     </g>
     <g id="text_6">
      <!-- $0.2$ -->
      <g transform="translate(4.143856 184.204729)scale(0.08 -0.08)">
       <defs>
        <path d="M 684 794 
L 1344 794 
L 1344 0 
L 684 0 
L 684 794 
z
" id="DejaVuSans-2e" transform="scale(0.015625)"/>
       </defs>
       <use transform="translate(0 0.78125)" xlink:href="#DejaVuSans-30"/>
       <use transform="translate(63.623047 0.78125)" xlink:href="#DejaVuSans-2e"/>
       <use transform="translate(89.910156 0.78125)" xlink:href="#DejaVuSans-32"/>
      </g>
     </g>
    </g>
    <g id="ytick_2">
     <g id="line2d_13">
      <path clip-path="url(#p8efbcc5279)" d="M 19.963856 125.641785 
L 296.365354 125.641785 
" style="fill:none;stroke:#000000;stroke-linecap:square;stroke-opacity:0.1;stroke-width:0.5;"/>
     </g>
     <g id="line2d_14">
      <g>
       <use style="stroke:#000000;stroke-width:0.5;" x="19.963856" xlink:href="#m05394a8d20" y="125.641785"/>
      </g>
     </g>
     <g id="text_7">
      <!-- $0.3$ -->
      <g transform="translate(3.663856 128.68116)scale(0.08 -0.08)">
       <defs>
        <path d="M 2597 2516 
Q 3050 2419 3304 2112 
Q 3559 1806 3559 1356 
Q 3559 666 3084 287 
Q 2609 -91 1734 -91 
Q 1441 -91 1130 -33 
Q 819 25 488 141 
L 488 750 
Q 750 597 1062 519 
Q 1375 441 1716 441 
Q 2309 441 2620 675 
Q 2931 909 2931 1356 
Q 2931 1769 2642 2001 
Q 2353 2234 1838 2234 
L 1294 2234 
L 1294 2753 
L 1863 2753 
Q 2328 2753 2575 2939 
Q 2822 3125 2822 3475 
Q 2822 3834 2567 4026 
Q 2313 4219 1838 4219 
Q 1578 4219 1281 4162 
Q 984 4106 628 3988 
L 628 4550 
Q 988 4650 1302 4700 
Q 1616 4750 1894 4750 
Q 2613 4750 3031 4423 
Q 3450 4097 3450 3541 
Q 3450 3153 3228 2886 
Q 3006 2619 2597 2516 
z
" id="DejaVuSans-33" transform="scale(0.015625)"/>
       </defs>
       <use transform="translate(0 0.78125)" xlink:href="#DejaVuSans-30"/>
       <use transform="translate(63.623047 0.78125)" xlink:href="#DejaVuSans-2e"/>
       <use transform="translate(95.410156 0.78125)" xlink:href="#DejaVuSans-33"/>
      </g>
     </g>
    </g>
    <g id="ytick_3">
     <g id="line2d_15">
      <path clip-path="url(#p8efbcc5279)" d="M 19.963856 70.118215 
L 296.365354 70.118215 
" style="fill:none;stroke:#000000;stroke-linecap:square;stroke-opacity:0.1;stroke-width:0.5;"/>
     </g>
     <g id="line2d_16">
      <g>
       <use style="stroke:#000000;stroke-width:0.5;" x="19.963856" xlink:href="#m05394a8d20" y="70.118215"/>
      </g>
     </g>
     <g id="text_8">
      <!-- $0.4$ -->
      <g transform="translate(3.663856 73.15759)scale(0.08 -0.08)">
       <defs>
        <path d="M 2419 4116 
L 825 1625 
L 2419 1625 
L 2419 4116 
z
M 2253 4666 
L 3047 4666 
L 3047 1625 
L 3713 1625 
L 3713 1100 
L 3047 1100 
L 3047 0 
L 2419 0 
L 2419 1100 
L 313 1100 
L 313 1709 
L 2253 4666 
z
" id="DejaVuSans-34" transform="scale(0.015625)"/>
       </defs>
       <use transform="translate(0 0.78125)" xlink:href="#DejaVuSans-30"/>
       <use transform="translate(63.623047 0.78125)" xlink:href="#DejaVuSans-2e"/>
       <use transform="translate(95.410156 0.78125)" xlink:href="#DejaVuSans-34"/>
      </g>
     </g>
    </g>
    <g id="ytick_4">
     <g id="line2d_17">
      <path clip-path="url(#p8efbcc5279)" d="M 19.963856 14.594646 
L 296.365354 14.594646 
" style="fill:none;stroke:#000000;stroke-linecap:square;stroke-opacity:0.1;stroke-width:0.5;"/>
     </g>
     <g id="line2d_18">
      <g>
       <use style="stroke:#000000;stroke-width:0.5;" x="19.963856" xlink:href="#m05394a8d20" y="14.594646"/>
      </g>
     </g>
     <g id="text_9">
      <!-- $0.5$ -->
      <g transform="translate(3.663856 17.634021)scale(0.08 -0.08)">
       <use transform="translate(0 0.78125)" xlink:href="#DejaVuSans-30"/>
       <use transform="translate(63.623047 0.78125)" xlink:href="#DejaVuSans-2e"/>
       <use transform="translate(95.410156 0.78125)" xlink:href="#DejaVuSans-35"/>
      </g>
     </g>
    </g>
   </g>
   <g id="line2d_19">
    <path clip-path="url(#p8efbcc5279)" d="M 27.78654 104.940192 
L 38.651379 108.798389 
L 49.516217 107.165682 
L 60.381056 99.976605 
L 71.245895 102.224292 
L 82.110734 92.117169 
L 92.975572 86.792429 
L 103.840411 106.651349 
L 114.70525 102.356006 
L 125.570089 105.117924 
L 136.434928 111.121247 
L 147.299766 101.93953 
L 158.164605 96.021273 
L 169.029444 91.520123 
L 179.894283 84.966083 
L 190.759121 87.550005 
L 201.62396 104.830094 
L 212.488799 99.678454 
L 223.353638 99.049565 
L 234.218477 104.362572 
L 245.083315 102.123638 
L 255.948154 81.474637 
L 266.812993 96.534295 
L 277.677832 96.943697 
L 288.54267 92.643558 
" style="fill:none;stroke:#009afa;"/>
   </g>
   <g id="line2d_20">
    <path clip-path="url(#p8efbcc5279)" d="M 27.78654 120.677827 
L 38.651379 123.624281 
L 49.516217 123.504674 
L 60.381056 116.215189 
L 71.245895 119.727531 
L 82.110734 109.345644 
L 92.975572 103.690804 
L 103.840411 121.672255 
L 114.70525 119.215221 
L 125.570089 120.944078 
L 136.434928 128.019721 
L 147.299766 119.131671 
L 158.164605 114.722902 
L 169.029444 108.680496 
L 179.894283 104.598097 
L 190.759121 106.603159 
L 201.62396 122.905664 
L 212.488799 119.388473 
L 223.353638 120.813769 
L 234.218477 124.606441 
L 245.083315 121.719439 
L 255.948154 102.801667 
L 266.812993 116.273482 
L 277.677832 116.37425 
L 288.54267 111.437778 
" style="fill:none;stroke:#e36f47;"/>
   </g>
   <g id="patch_3">
    <path d="M 19.963856 181.165354 
L 19.963856 14.594646 
" style="fill:none;stroke:#000000;stroke-linecap:square;stroke-linejoin:miter;"/>
   </g>
   <g id="patch_4">
    <path d="M 19.963856 181.165354 
L 296.365354 181.165354 
" style="fill:none;stroke:#000000;stroke-linecap:square;stroke-linejoin:miter;"/>
   </g>
   <g id="text_10">
    <!-- Scotland: Gini -->
    <g transform="translate(130.29773 8.594646)scale(0.08 -0.08)">
     <defs>
      <path d="M 3425 4513 
L 3425 3897 
Q 3066 4069 2747 4153 
Q 2428 4238 2131 4238 
Q 1616 4238 1336 4038 
Q 1056 3838 1056 3469 
Q 1056 3159 1242 3001 
Q 1428 2844 1947 2747 
L 2328 2669 
Q 3034 2534 3370 2195 
Q 3706 1856 3706 1288 
Q 3706 609 3251 259 
Q 2797 -91 1919 -91 
Q 1588 -91 1214 -16 
Q 841 59 441 206 
L 441 856 
Q 825 641 1194 531 
Q 1563 422 1919 422 
Q 2459 422 2753 634 
Q 3047 847 3047 1241 
Q 3047 1584 2836 1778 
Q 2625 1972 2144 2069 
L 1759 2144 
Q 1053 2284 737 2584 
Q 422 2884 422 3419 
Q 422 4038 858 4394 
Q 1294 4750 2059 4750 
Q 2388 4750 2728 4690 
Q 3069 4631 3425 4513 
z
" id="DejaVuSans-53" transform="scale(0.015625)"/>
      <path d="M 3122 3366 
L 3122 2828 
Q 2878 2963 2633 3030 
Q 2388 3097 2138 3097 
Q 1578 3097 1268 2742 
Q 959 2388 959 1747 
Q 959 1106 1268 751 
Q 1578 397 2138 397 
Q 2388 397 2633 464 
Q 2878 531 3122 666 
L 3122 134 
Q 2881 22 2623 -34 
Q 2366 -91 2075 -91 
Q 1284 -91 818 406 
Q 353 903 353 1747 
Q 353 2603 823 3093 
Q 1294 3584 2113 3584 
Q 2378 3584 2631 3529 
Q 2884 3475 3122 3366 
z
" id="DejaVuSans-63" transform="scale(0.015625)"/>
      <path d="M 1959 3097 
Q 1497 3097 1228 2736 
Q 959 2375 959 1747 
Q 959 1119 1226 758 
Q 1494 397 1959 397 
Q 2419 397 2687 759 
Q 2956 1122 2956 1747 
Q 2956 2369 2687 2733 
Q 2419 3097 1959 3097 
z
M 1959 3584 
Q 2709 3584 3137 3096 
Q 3566 2609 3566 1747 
Q 3566 888 3137 398 
Q 2709 -91 1959 -91 
Q 1206 -91 779 398 
Q 353 888 353 1747 
Q 353 2609 779 3096 
Q 1206 3584 1959 3584 
z
" id="DejaVuSans-6f" transform="scale(0.015625)"/>
      <path d="M 1172 4494 
L 1172 3500 
L 2356 3500 
L 2356 3053 
L 1172 3053 
L 1172 1153 
Q 1172 725 1289 603 
Q 1406 481 1766 481 
L 2356 481 
L 2356 0 
L 1766 0 
Q 1100 0 847 248 
Q 594 497 594 1153 
L 594 3053 
L 172 3053 
L 172 3500 
L 594 3500 
L 594 4494 
L 1172 4494 
z
" id="DejaVuSans-74" transform="scale(0.015625)"/>
      <path d="M 603 4863 
L 1178 4863 
L 1178 0 
L 603 0 
L 603 4863 
z
" id="DejaVuSans-6c" transform="scale(0.015625)"/>
      <path d="M 2194 1759 
Q 1497 1759 1228 1600 
Q 959 1441 959 1056 
Q 959 750 1161 570 
Q 1363 391 1709 391 
Q 2188 391 2477 730 
Q 2766 1069 2766 1631 
L 2766 1759 
L 2194 1759 
z
M 3341 1997 
L 3341 0 
L 2766 0 
L 2766 531 
Q 2569 213 2275 61 
Q 1981 -91 1556 -91 
Q 1019 -91 701 211 
Q 384 513 384 1019 
Q 384 1609 779 1909 
Q 1175 2209 1959 2209 
L 2766 2209 
L 2766 2266 
Q 2766 2663 2505 2880 
Q 2244 3097 1772 3097 
Q 1472 3097 1187 3025 
Q 903 2953 641 2809 
L 641 3341 
Q 956 3463 1253 3523 
Q 1550 3584 1831 3584 
Q 2591 3584 2966 3190 
Q 3341 2797 3341 1997 
z
" id="DejaVuSans-61" transform="scale(0.015625)"/>
      <path d="M 3513 2113 
L 3513 0 
L 2938 0 
L 2938 2094 
Q 2938 2591 2744 2837 
Q 2550 3084 2163 3084 
Q 1697 3084 1428 2787 
Q 1159 2491 1159 1978 
L 1159 0 
L 581 0 
L 581 3500 
L 1159 3500 
L 1159 2956 
Q 1366 3272 1645 3428 
Q 1925 3584 2291 3584 
Q 2894 3584 3203 3211 
Q 3513 2838 3513 2113 
z
" id="DejaVuSans-6e" transform="scale(0.015625)"/>
      <path d="M 2906 2969 
L 2906 4863 
L 3481 4863 
L 3481 0 
L 2906 0 
L 2906 525 
Q 2725 213 2448 61 
Q 2172 -91 1784 -91 
Q 1150 -91 751 415 
Q 353 922 353 1747 
Q 353 2572 751 3078 
Q 1150 3584 1784 3584 
Q 2172 3584 2448 3432 
Q 2725 3281 2906 2969 
z
M 947 1747 
Q 947 1113 1208 752 
Q 1469 391 1925 391 
Q 2381 391 2643 752 
Q 2906 1113 2906 1747 
Q 2906 2381 2643 2742 
Q 2381 3103 1925 3103 
Q 1469 3103 1208 2742 
Q 947 2381 947 1747 
z
" id="DejaVuSans-64" transform="scale(0.015625)"/>
      <path d="M 750 794 
L 1409 794 
L 1409 0 
L 750 0 
L 750 794 
z
M 750 3309 
L 1409 3309 
L 1409 2516 
L 750 2516 
L 750 3309 
z
" id="DejaVuSans-3a" transform="scale(0.015625)"/>
      <path id="DejaVuSans-20" transform="scale(0.015625)"/>
      <path d="M 3809 666 
L 3809 1919 
L 2778 1919 
L 2778 2438 
L 4434 2438 
L 4434 434 
Q 4069 175 3628 42 
Q 3188 -91 2688 -91 
Q 1594 -91 976 548 
Q 359 1188 359 2328 
Q 359 3472 976 4111 
Q 1594 4750 2688 4750 
Q 3144 4750 3555 4637 
Q 3966 4525 4313 4306 
L 4313 3634 
Q 3963 3931 3569 4081 
Q 3175 4231 2741 4231 
Q 1884 4231 1454 3753 
Q 1025 3275 1025 2328 
Q 1025 1384 1454 906 
Q 1884 428 2741 428 
Q 3075 428 3337 486 
Q 3600 544 3809 666 
z
" id="DejaVuSans-47" transform="scale(0.015625)"/>
      <path d="M 603 3500 
L 1178 3500 
L 1178 0 
L 603 0 
L 603 3500 
z
M 603 4863 
L 1178 4863 
L 1178 4134 
L 603 4134 
L 603 4863 
z
" id="DejaVuSans-69" transform="scale(0.015625)"/>
     </defs>
     <use xlink:href="#DejaVuSans-53"/>
     <use x="63.476562" xlink:href="#DejaVuSans-63"/>
     <use x="118.457031" xlink:href="#DejaVuSans-6f"/>
     <use x="179.638672" xlink:href="#DejaVuSans-74"/>
     <use x="218.847656" xlink:href="#DejaVuSans-6c"/>
     <use x="246.630859" xlink:href="#DejaVuSans-61"/>
     <use x="307.910156" xlink:href="#DejaVuSans-6e"/>
     <use x="371.289062" xlink:href="#DejaVuSans-64"/>
     <use x="434.765625" xlink:href="#DejaVuSans-3a"/>
     <use x="468.457031" xlink:href="#DejaVuSans-20"/>
     <use x="500.244141" xlink:href="#DejaVuSans-47"/>
     <use x="577.734375" xlink:href="#DejaVuSans-69"/>
     <use x="605.517578" xlink:href="#DejaVuSans-6e"/>
     <use x="668.896484" xlink:href="#DejaVuSans-69"/>
    </g>
   </g>
   <g id="legend_1">
    <g id="patch_5">
     <path d="M 300.365354 217.450354 
L 352.656604 217.450354 
L 352.656604 185.165354 
L 300.365354 185.165354 
z
" style="fill:#ffffff;stroke:#000000;stroke-linejoin:miter;"/>
    </g>
    <g id="line2d_21">
     <path d="M 306.765354 194.844104 
L 322.765354 194.844104 
" style="fill:none;stroke:#009afa;stroke-linejoin:miter;"/>
    </g>
    <g id="line2d_22"/>
    <g id="text_11">
     <!-- AHC -->
     <g transform="translate(329.165354 197.644104)scale(0.08 -0.08)">
      <defs>
       <path d="M 2188 4044 
L 1331 1722 
L 3047 1722 
L 2188 4044 
z
M 1831 4666 
L 2547 4666 
L 4325 0 
L 3669 0 
L 3244 1197 
L 1141 1197 
L 716 0 
L 50 0 
L 1831 4666 
z
" id="DejaVuSans-41" transform="scale(0.015625)"/>
       <path d="M 628 4666 
L 1259 4666 
L 1259 2753 
L 3553 2753 
L 3553 4666 
L 4184 4666 
L 4184 0 
L 3553 0 
L 3553 2222 
L 1259 2222 
L 1259 0 
L 628 0 
L 628 4666 
z
" id="DejaVuSans-48" transform="scale(0.015625)"/>
       <path d="M 4122 4306 
L 4122 3641 
Q 3803 3938 3442 4084 
Q 3081 4231 2675 4231 
Q 1875 4231 1450 3742 
Q 1025 3253 1025 2328 
Q 1025 1406 1450 917 
Q 1875 428 2675 428 
Q 3081 428 3442 575 
Q 3803 722 4122 1019 
L 4122 359 
Q 3791 134 3420 21 
Q 3050 -91 2638 -91 
Q 1578 -91 968 557 
Q 359 1206 359 2328 
Q 359 3453 968 4101 
Q 1578 4750 2638 4750 
Q 3056 4750 3426 4639 
Q 3797 4528 4122 4306 
z
" id="DejaVuSans-43" transform="scale(0.015625)"/>
      </defs>
      <use xlink:href="#DejaVuSans-41"/>
      <use x="68.408203" xlink:href="#DejaVuSans-48"/>
      <use x="143.603516" xlink:href="#DejaVuSans-43"/>
     </g>
    </g>
    <g id="line2d_23">
     <path d="M 306.765354 206.586604 
L 322.765354 206.586604 
" style="fill:none;stroke:#e36f47;stroke-linejoin:miter;"/>
    </g>
    <g id="line2d_24"/>
    <g id="text_12">
     <!-- BHC -->
     <g transform="translate(329.165354 209.386604)scale(0.08 -0.08)">
      <defs>
       <path d="M 1259 2228 
L 1259 519 
L 2272 519 
Q 2781 519 3026 730 
Q 3272 941 3272 1375 
Q 3272 1813 3026 2020 
Q 2781 2228 2272 2228 
L 1259 2228 
z
M 1259 4147 
L 1259 2741 
L 2194 2741 
Q 2656 2741 2882 2914 
Q 3109 3088 3109 3444 
Q 3109 3797 2882 3972 
Q 2656 4147 2194 4147 
L 1259 4147 
z
M 628 4666 
L 2241 4666 
Q 2963 4666 3353 4366 
Q 3744 4066 3744 3513 
Q 3744 3084 3544 2831 
Q 3344 2578 2956 2516 
Q 3422 2416 3680 2098 
Q 3938 1781 3938 1306 
Q 3938 681 3513 340 
Q 3088 0 2303 0 
L 628 0 
L 628 4666 
z
" id="DejaVuSans-42" transform="scale(0.015625)"/>
      </defs>
      <use xlink:href="#DejaVuSans-42"/>
      <use x="68.603516" xlink:href="#DejaVuSans-48"/>
      <use x="143.798828" xlink:href="#DejaVuSans-43"/>
     </g>
    </g>
   </g>
  </g>
  <g id="axes_2">
   <g id="patch_6">
    <path d="M 384.733856 181.165354 
L 661.135354 181.165354 
L 661.135354 14.594646 
L 384.733856 14.594646 
z
" style="fill:#ffffff;"/>
   </g>
   <g id="matplotlib.axis_3">
    <g id="xtick_6">
     <g id="line2d_25">
      <path clip-path="url(#p79366d0cb2)" d="M 403.421379 181.165354 
L 403.421379 14.594646 
" style="fill:none;stroke:#000000;stroke-linecap:square;stroke-opacity:0.1;stroke-width:0.5;"/>
     </g>
     <g id="line2d_26">
      <g>
       <use style="stroke:#000000;stroke-width:0.5;" x="403.421379" xlink:href="#m5d6f11f6f8" y="181.165354"/>
      </g>
     </g>
     <g id="text_13">
      <!-- $1995$ -->
      <g transform="translate(393.221379 190.744104)scale(0.08 -0.08)">
       <use transform="translate(0 0.78125)" xlink:href="#DejaVuSans-31"/>
       <use transform="translate(63.623047 0.78125)" xlink:href="#DejaVuSans-39"/>
       <use transform="translate(127.246094 0.78125)" xlink:href="#DejaVuSans-39"/>
       <use transform="translate(190.869141 0.78125)" xlink:href="#DejaVuSans-35"/>
      </g>
     </g>
    </g>
    <g id="xtick_7">
     <g id="line2d_27">
      <path clip-path="url(#p79366d0cb2)" d="M 457.745572 181.165354 
L 457.745572 14.594646 
" style="fill:none;stroke:#000000;stroke-linecap:square;stroke-opacity:0.1;stroke-width:0.5;"/>
     </g>
     <g id="line2d_28">
      <g>
       <use style="stroke:#000000;stroke-width:0.5;" x="457.745572" xlink:href="#m5d6f11f6f8" y="181.165354"/>
      </g>
     </g>
     <g id="text_14">
      <!-- $2000$ -->
      <g transform="translate(447.545572 190.744104)scale(0.08 -0.08)">
       <use transform="translate(0 0.78125)" xlink:href="#DejaVuSans-32"/>
       <use transform="translate(63.623047 0.78125)" xlink:href="#DejaVuSans-30"/>
       <use transform="translate(127.246094 0.78125)" xlink:href="#DejaVuSans-30"/>
       <use transform="translate(190.869141 0.78125)" xlink:href="#DejaVuSans-30"/>
      </g>
     </g>
    </g>
    <g id="xtick_8">
     <g id="line2d_29">
      <path clip-path="url(#p79366d0cb2)" d="M 512.069766 181.165354 
L 512.069766 14.594646 
" style="fill:none;stroke:#000000;stroke-linecap:square;stroke-opacity:0.1;stroke-width:0.5;"/>
     </g>
     <g id="line2d_30">
      <g>
       <use style="stroke:#000000;stroke-width:0.5;" x="512.069766" xlink:href="#m5d6f11f6f8" y="181.165354"/>
      </g>
     </g>
     <g id="text_15">
      <!-- $2005$ -->
      <g transform="translate(501.869766 190.744104)scale(0.08 -0.08)">
       <use transform="translate(0 0.78125)" xlink:href="#DejaVuSans-32"/>
       <use transform="translate(63.623047 0.78125)" xlink:href="#DejaVuSans-30"/>
       <use transform="translate(127.246094 0.78125)" xlink:href="#DejaVuSans-30"/>
       <use transform="translate(190.869141 0.78125)" xlink:href="#DejaVuSans-35"/>
      </g>
     </g>
    </g>
    <g id="xtick_9">
     <g id="line2d_31">
      <path clip-path="url(#p79366d0cb2)" d="M 566.39396 181.165354 
L 566.39396 14.594646 
" style="fill:none;stroke:#000000;stroke-linecap:square;stroke-opacity:0.1;stroke-width:0.5;"/>
     </g>
     <g id="line2d_32">
      <g>
       <use style="stroke:#000000;stroke-width:0.5;" x="566.39396" xlink:href="#m5d6f11f6f8" y="181.165354"/>
      </g>
     </g>
     <g id="text_16">
      <!-- $2010$ -->
      <g transform="translate(556.19396 190.744104)scale(0.08 -0.08)">
       <use transform="translate(0 0.78125)" xlink:href="#DejaVuSans-32"/>
       <use transform="translate(63.623047 0.78125)" xlink:href="#DejaVuSans-30"/>
       <use transform="translate(127.246094 0.78125)" xlink:href="#DejaVuSans-31"/>
       <use transform="translate(190.869141 0.78125)" xlink:href="#DejaVuSans-30"/>
      </g>
     </g>
    </g>
    <g id="xtick_10">
     <g id="line2d_33">
      <path clip-path="url(#p79366d0cb2)" d="M 620.718154 181.165354 
L 620.718154 14.594646 
" style="fill:none;stroke:#000000;stroke-linecap:square;stroke-opacity:0.1;stroke-width:0.5;"/>
     </g>
     <g id="line2d_34">
      <g>
       <use style="stroke:#000000;stroke-width:0.5;" x="620.718154" xlink:href="#m5d6f11f6f8" y="181.165354"/>
      </g>
     </g>
     <g id="text_17">
      <!-- $2015$ -->
      <g transform="translate(610.518154 190.744104)scale(0.08 -0.08)">
       <use transform="translate(0 0.78125)" xlink:href="#DejaVuSans-32"/>
       <use transform="translate(63.623047 0.78125)" xlink:href="#DejaVuSans-30"/>
       <use transform="translate(127.246094 0.78125)" xlink:href="#DejaVuSans-31"/>
       <use transform="translate(190.869141 0.78125)" xlink:href="#DejaVuSans-35"/>
      </g>
     </g>
    </g>
   </g>
   <g id="matplotlib.axis_4">
    <g id="ytick_5">
     <g id="line2d_35">
      <path clip-path="url(#p79366d0cb2)" d="M 384.733856 181.165354 
L 661.135354 181.165354 
" style="fill:none;stroke:#000000;stroke-linecap:square;stroke-opacity:0.1;stroke-width:0.5;"/>
     </g>
     <g id="line2d_36">
      <g>
       <use style="stroke:#000000;stroke-width:0.5;" x="384.733856" xlink:href="#m05394a8d20" y="181.165354"/>
      </g>
     </g>
     <g id="text_18">
      <!-- $0.0$ -->
      <g transform="translate(368.433856 184.204729)scale(0.08 -0.08)">
       <use transform="translate(0 0.78125)" xlink:href="#DejaVuSans-30"/>
       <use transform="translate(63.623047 0.78125)" xlink:href="#DejaVuSans-2e"/>
       <use transform="translate(95.410156 0.78125)" xlink:href="#DejaVuSans-30"/>
      </g>
     </g>
    </g>
    <g id="ytick_6">
     <g id="line2d_37">
      <path clip-path="url(#p79366d0cb2)" d="M 384.733856 139.522677 
L 661.135354 139.522677 
" style="fill:none;stroke:#000000;stroke-linecap:square;stroke-opacity:0.1;stroke-width:0.5;"/>
     </g>
     <g id="line2d_38">
      <g>
       <use style="stroke:#000000;stroke-width:0.5;" x="384.733856" xlink:href="#m05394a8d20" y="139.522677"/>
      </g>
     </g>
     <g id="text_19">
      <!-- $0.5$ -->
      <g transform="translate(368.433856 142.562052)scale(0.08 -0.08)">
       <use transform="translate(0 0.78125)" xlink:href="#DejaVuSans-30"/>
       <use transform="translate(63.623047 0.78125)" xlink:href="#DejaVuSans-2e"/>
       <use transform="translate(95.410156 0.78125)" xlink:href="#DejaVuSans-35"/>
      </g>
     </g>
    </g>
    <g id="ytick_7">
     <g id="line2d_39">
      <path clip-path="url(#p79366d0cb2)" d="M 384.733856 97.88 
L 661.135354 97.88 
" style="fill:none;stroke:#000000;stroke-linecap:square;stroke-opacity:0.1;stroke-width:0.5;"/>
     </g>
     <g id="line2d_40">
      <g>
       <use style="stroke:#000000;stroke-width:0.5;" x="384.733856" xlink:href="#m05394a8d20" y="97.88"/>
      </g>
     </g>
     <g id="text_20">
      <!-- $1.0$ -->
      <g transform="translate(368.433856 100.919375)scale(0.08 -0.08)">
       <use transform="translate(0 0.78125)" xlink:href="#DejaVuSans-31"/>
       <use transform="translate(63.623047 0.78125)" xlink:href="#DejaVuSans-2e"/>
       <use transform="translate(95.410156 0.78125)" xlink:href="#DejaVuSans-30"/>
      </g>
     </g>
    </g>
    <g id="ytick_8">
     <g id="line2d_41">
      <path clip-path="url(#p79366d0cb2)" d="M 384.733856 56.237323 
L 661.135354 56.237323 
" style="fill:none;stroke:#000000;stroke-linecap:square;stroke-opacity:0.1;stroke-width:0.5;"/>
     </g>
     <g id="line2d_42">
      <g>
       <use style="stroke:#000000;stroke-width:0.5;" x="384.733856" xlink:href="#m05394a8d20" y="56.237323"/>
      </g>
     </g>
     <g id="text_21">
      <!-- $1.5$ -->
      <g transform="translate(368.433856 59.276698)scale(0.08 -0.08)">
       <use transform="translate(0 0.09375)" xlink:href="#DejaVuSans-31"/>
       <use transform="translate(63.623047 0.09375)" xlink:href="#DejaVuSans-2e"/>
       <use transform="translate(95.410156 0.09375)" xlink:href="#DejaVuSans-35"/>
      </g>
     </g>
    </g>
    <g id="ytick_9">
     <g id="line2d_43">
      <path clip-path="url(#p79366d0cb2)" d="M 384.733856 14.594646 
L 661.135354 14.594646 
" style="fill:none;stroke:#000000;stroke-linecap:square;stroke-opacity:0.1;stroke-width:0.5;"/>
     </g>
     <g id="line2d_44">
      <g>
       <use style="stroke:#000000;stroke-width:0.5;" x="384.733856" xlink:href="#m05394a8d20" y="14.594646"/>
      </g>
     </g>
     <g id="text_22">
      <!-- $2.0$ -->
      <g transform="translate(368.433856 17.634021)scale(0.08 -0.08)">
       <use transform="translate(0 0.78125)" xlink:href="#DejaVuSans-32"/>
       <use transform="translate(63.623047 0.78125)" xlink:href="#DejaVuSans-2e"/>
       <use transform="translate(95.410156 0.78125)" xlink:href="#DejaVuSans-30"/>
      </g>
     </g>
    </g>
   </g>
   <g id="line2d_45">
    <path clip-path="url(#p79366d0cb2)" d="M 392.55654 72.160524 
L 403.421379 75.631366 
L 414.286217 74.263963 
L 425.151056 65.426925 
L 436.015895 68.616703 
L 446.880734 55.789723 
L 457.745572 49.135545 
L 468.610411 73.292277 
L 479.47525 67.326771 
L 490.340089 69.962184 
L 501.204928 77.967972 
L 512.069766 67.526491 
L 522.934605 61.072463 
L 533.799444 54.9654 
L 544.664283 46.326084 
L 555.529121 49.687703 
L 566.39396 70.477599 
L 577.258799 64.605698 
L 588.123638 64.893653 
L 598.988477 70.086905 
L 609.853315 68.06771 
L 620.718154 43.083427 
L 631.582993 61.345646 
L 642.447832 61.739515 
L 653.31267 55.687889 
" style="fill:none;stroke:#009afa;"/>
   </g>
   <g id="line2d_46">
    <path clip-path="url(#p79366d0cb2)" d="M 392.55654 86.534217 
L 403.421379 88.264747 
L 414.286217 88.824869 
L 425.151056 80.81651 
L 436.015895 84.680262 
L 446.880734 74.185749 
L 457.745572 67.796231 
L 468.610411 86.109877 
L 479.47525 83.225531 
L 490.340089 84.523662 
L 501.204928 92.213738 
L 512.069766 83.454651 
L 522.934605 79.015081 
L 533.799444 72.711562 
L 544.664283 68.294301 
L 555.529121 69.520663 
L 566.39396 86.461625 
L 577.258799 82.266909 
L 588.123638 84.853224 
L 598.988477 87.97031 
L 609.853315 85.230967 
L 620.718154 65.889027 
L 631.582993 80.336692 
L 642.447832 80.760921 
L 653.31267 74.657116 
" style="fill:none;stroke:#e36f47;"/>
   </g>
   <g id="patch_7">
    <path d="M 384.733856 181.165354 
L 384.733856 14.594646 
" style="fill:none;stroke:#000000;stroke-linecap:square;stroke-linejoin:miter;"/>
   </g>
   <g id="patch_8">
    <path d="M 384.733856 181.165354 
L 661.135354 181.165354 
" style="fill:none;stroke:#000000;stroke-linecap:square;stroke-linejoin:miter;"/>
   </g>
   <g id="text_23">
    <!-- Scotland: Palma -->
    <g transform="translate(490.78273 8.594646)scale(0.08 -0.08)">
     <defs>
      <path d="M 1259 4147 
L 1259 2394 
L 2053 2394 
Q 2494 2394 2734 2622 
Q 2975 2850 2975 3272 
Q 2975 3691 2734 3919 
Q 2494 4147 2053 4147 
L 1259 4147 
z
M 628 4666 
L 2053 4666 
Q 2838 4666 3239 4311 
Q 3641 3956 3641 3272 
Q 3641 2581 3239 2228 
Q 2838 1875 2053 1875 
L 1259 1875 
L 1259 0 
L 628 0 
L 628 4666 
z
" id="DejaVuSans-50" transform="scale(0.015625)"/>
      <path d="M 3328 2828 
Q 3544 3216 3844 3400 
Q 4144 3584 4550 3584 
Q 5097 3584 5394 3201 
Q 5691 2819 5691 2113 
L 5691 0 
L 5113 0 
L 5113 2094 
Q 5113 2597 4934 2840 
Q 4756 3084 4391 3084 
Q 3944 3084 3684 2787 
Q 3425 2491 3425 1978 
L 3425 0 
L 2847 0 
L 2847 2094 
Q 2847 2600 2669 2842 
Q 2491 3084 2119 3084 
Q 1678 3084 1418 2786 
Q 1159 2488 1159 1978 
L 1159 0 
L 581 0 
L 581 3500 
L 1159 3500 
L 1159 2956 
Q 1356 3278 1631 3431 
Q 1906 3584 2284 3584 
Q 2666 3584 2933 3390 
Q 3200 3197 3328 2828 
z
" id="DejaVuSans-6d" transform="scale(0.015625)"/>
     </defs>
     <use xlink:href="#DejaVuSans-53"/>
     <use x="63.476562" xlink:href="#DejaVuSans-63"/>
     <use x="118.457031" xlink:href="#DejaVuSans-6f"/>
     <use x="179.638672" xlink:href="#DejaVuSans-74"/>
     <use x="218.847656" xlink:href="#DejaVuSans-6c"/>
     <use x="246.630859" xlink:href="#DejaVuSans-61"/>
     <use x="307.910156" xlink:href="#DejaVuSans-6e"/>
     <use x="371.289062" xlink:href="#DejaVuSans-64"/>
     <use x="434.765625" xlink:href="#DejaVuSans-3a"/>
     <use x="468.457031" xlink:href="#DejaVuSans-20"/>
     <use x="500.244141" xlink:href="#DejaVuSans-50"/>
     <use x="556.046875" xlink:href="#DejaVuSans-61"/>
     <use x="617.326172" xlink:href="#DejaVuSans-6c"/>
     <use x="645.109375" xlink:href="#DejaVuSans-6d"/>
     <use x="742.521484" xlink:href="#DejaVuSans-61"/>
    </g>
   </g>
   <g id="legend_2">
    <g id="patch_9">
     <path d="M 665.135354 217.450354 
L 717.426604 217.450354 
L 717.426604 185.165354 
L 665.135354 185.165354 
z
" style="fill:#ffffff;stroke:#000000;stroke-linejoin:miter;"/>
    </g>
    <g id="line2d_47">
     <path d="M 671.535354 194.844104 
L 687.535354 194.844104 
" style="fill:none;stroke:#009afa;stroke-linejoin:miter;"/>
    </g>
    <g id="line2d_48"/>
    <g id="text_24">
     <!-- AHC -->
     <g transform="translate(693.935354 197.644104)scale(0.08 -0.08)">
      <use xlink:href="#DejaVuSans-41"/>
      <use x="68.408203" xlink:href="#DejaVuSans-48"/>
      <use x="143.603516" xlink:href="#DejaVuSans-43"/>
     </g>
    </g>
    <g id="line2d_49">
     <path d="M 671.535354 206.586604 
L 687.535354 206.586604 
" style="fill:none;stroke:#e36f47;stroke-linejoin:miter;"/>
    </g>
    <g id="line2d_50"/>
    <g id="text_25">
     <!-- BHC -->
     <g transform="translate(693.935354 209.386604)scale(0.08 -0.08)">
      <use xlink:href="#DejaVuSans-42"/>
      <use x="68.603516" xlink:href="#DejaVuSans-48"/>
      <use x="143.798828" xlink:href="#DejaVuSans-43"/>
     </g>
    </g>
   </g>
  </g>
  <g id="axes_3">
   <g id="patch_10">
    <path d="M 19.963856 400.365354 
L 296.365354 400.365354 
L 296.365354 233.794646 
L 19.963856 233.794646 
z
" style="fill:#ffffff;"/>
   </g>
   <g id="matplotlib.axis_5">
    <g id="xtick_11">
     <g id="line2d_51">
      <path clip-path="url(#p334e398adb)" d="M 38.651379 400.365354 
L 38.651379 233.794646 
" style="fill:none;stroke:#000000;stroke-linecap:square;stroke-opacity:0.1;stroke-width:0.5;"/>
     </g>
     <g id="line2d_52">
      <g>
       <use style="stroke:#000000;stroke-width:0.5;" x="38.651379" xlink:href="#m5d6f11f6f8" y="400.365354"/>
      </g>
     </g>
     <g id="text_26">
      <!-- $1995$ -->
      <g transform="translate(28.451379 409.944104)scale(0.08 -0.08)">
       <use transform="translate(0 0.78125)" xlink:href="#DejaVuSans-31"/>
       <use transform="translate(63.623047 0.78125)" xlink:href="#DejaVuSans-39"/>
       <use transform="translate(127.246094 0.78125)" xlink:href="#DejaVuSans-39"/>
       <use transform="translate(190.869141 0.78125)" xlink:href="#DejaVuSans-35"/>
      </g>
     </g>
    </g>
    <g id="xtick_12">
     <g id="line2d_53">
      <path clip-path="url(#p334e398adb)" d="M 92.975572 400.365354 
L 92.975572 233.794646 
" style="fill:none;stroke:#000000;stroke-linecap:square;stroke-opacity:0.1;stroke-width:0.5;"/>
     </g>
     <g id="line2d_54">
      <g>
       <use style="stroke:#000000;stroke-width:0.5;" x="92.975572" xlink:href="#m5d6f11f6f8" y="400.365354"/>
      </g>
     </g>
     <g id="text_27">
      <!-- $2000$ -->
      <g transform="translate(82.775572 409.944104)scale(0.08 -0.08)">
       <use transform="translate(0 0.78125)" xlink:href="#DejaVuSans-32"/>
       <use transform="translate(63.623047 0.78125)" xlink:href="#DejaVuSans-30"/>
       <use transform="translate(127.246094 0.78125)" xlink:href="#DejaVuSans-30"/>
       <use transform="translate(190.869141 0.78125)" xlink:href="#DejaVuSans-30"/>
      </g>
     </g>
    </g>
    <g id="xtick_13">
     <g id="line2d_55">
      <path clip-path="url(#p334e398adb)" d="M 147.299766 400.365354 
L 147.299766 233.794646 
" style="fill:none;stroke:#000000;stroke-linecap:square;stroke-opacity:0.1;stroke-width:0.5;"/>
     </g>
     <g id="line2d_56">
      <g>
       <use style="stroke:#000000;stroke-width:0.5;" x="147.299766" xlink:href="#m5d6f11f6f8" y="400.365354"/>
      </g>
     </g>
     <g id="text_28">
      <!-- $2005$ -->
      <g transform="translate(137.099766 409.944104)scale(0.08 -0.08)">
       <use transform="translate(0 0.78125)" xlink:href="#DejaVuSans-32"/>
       <use transform="translate(63.623047 0.78125)" xlink:href="#DejaVuSans-30"/>
       <use transform="translate(127.246094 0.78125)" xlink:href="#DejaVuSans-30"/>
       <use transform="translate(190.869141 0.78125)" xlink:href="#DejaVuSans-35"/>
      </g>
     </g>
    </g>
    <g id="xtick_14">
     <g id="line2d_57">
      <path clip-path="url(#p334e398adb)" d="M 201.62396 400.365354 
L 201.62396 233.794646 
" style="fill:none;stroke:#000000;stroke-linecap:square;stroke-opacity:0.1;stroke-width:0.5;"/>
     </g>
     <g id="line2d_58">
      <g>
       <use style="stroke:#000000;stroke-width:0.5;" x="201.62396" xlink:href="#m5d6f11f6f8" y="400.365354"/>
      </g>
     </g>
     <g id="text_29">
      <!-- $2010$ -->
      <g transform="translate(191.42396 409.944104)scale(0.08 -0.08)">
       <use transform="translate(0 0.78125)" xlink:href="#DejaVuSans-32"/>
       <use transform="translate(63.623047 0.78125)" xlink:href="#DejaVuSans-30"/>
       <use transform="translate(127.246094 0.78125)" xlink:href="#DejaVuSans-31"/>
       <use transform="translate(190.869141 0.78125)" xlink:href="#DejaVuSans-30"/>
      </g>
     </g>
    </g>
    <g id="xtick_15">
     <g id="line2d_59">
      <path clip-path="url(#p334e398adb)" d="M 255.948154 400.365354 
L 255.948154 233.794646 
" style="fill:none;stroke:#000000;stroke-linecap:square;stroke-opacity:0.1;stroke-width:0.5;"/>
     </g>
     <g id="line2d_60">
      <g>
       <use style="stroke:#000000;stroke-width:0.5;" x="255.948154" xlink:href="#m5d6f11f6f8" y="400.365354"/>
      </g>
     </g>
     <g id="text_30">
      <!-- $2015$ -->
      <g transform="translate(245.748154 409.944104)scale(0.08 -0.08)">
       <use transform="translate(0 0.78125)" xlink:href="#DejaVuSans-32"/>
       <use transform="translate(63.623047 0.78125)" xlink:href="#DejaVuSans-30"/>
       <use transform="translate(127.246094 0.78125)" xlink:href="#DejaVuSans-31"/>
       <use transform="translate(190.869141 0.78125)" xlink:href="#DejaVuSans-35"/>
      </g>
     </g>
    </g>
   </g>
   <g id="matplotlib.axis_6">
    <g id="ytick_10">
     <g id="line2d_61">
      <path clip-path="url(#p334e398adb)" d="M 19.963856 400.365354 
L 296.365354 400.365354 
" style="fill:none;stroke:#000000;stroke-linecap:square;stroke-opacity:0.1;stroke-width:0.5;"/>
     </g>
     <g id="line2d_62">
      <g>
       <use style="stroke:#000000;stroke-width:0.5;" x="19.963856" xlink:href="#m05394a8d20" y="400.365354"/>
      </g>
     </g>
     <g id="text_31">
      <!-- $0.2$ -->
      <g transform="translate(4.143856 403.404729)scale(0.08 -0.08)">
       <use transform="translate(0 0.78125)" xlink:href="#DejaVuSans-30"/>
       <use transform="translate(63.623047 0.78125)" xlink:href="#DejaVuSans-2e"/>
       <use transform="translate(89.910156 0.78125)" xlink:href="#DejaVuSans-32"/>
      </g>
     </g>
    </g>
    <g id="ytick_11">
     <g id="line2d_63">
      <path clip-path="url(#p334e398adb)" d="M 19.963856 344.841785 
L 296.365354 344.841785 
" style="fill:none;stroke:#000000;stroke-linecap:square;stroke-opacity:0.1;stroke-width:0.5;"/>
     </g>
     <g id="line2d_64">
      <g>
       <use style="stroke:#000000;stroke-width:0.5;" x="19.963856" xlink:href="#m05394a8d20" y="344.841785"/>
      </g>
     </g>
     <g id="text_32">
      <!-- $0.3$ -->
      <g transform="translate(3.663856 347.88116)scale(0.08 -0.08)">
       <use transform="translate(0 0.78125)" xlink:href="#DejaVuSans-30"/>
       <use transform="translate(63.623047 0.78125)" xlink:href="#DejaVuSans-2e"/>
       <use transform="translate(95.410156 0.78125)" xlink:href="#DejaVuSans-33"/>
      </g>
     </g>
    </g>
    <g id="ytick_12">
     <g id="line2d_65">
      <path clip-path="url(#p334e398adb)" d="M 19.963856 289.318215 
L 296.365354 289.318215 
" style="fill:none;stroke:#000000;stroke-linecap:square;stroke-opacity:0.1;stroke-width:0.5;"/>
     </g>
     <g id="line2d_66">
      <g>
       <use style="stroke:#000000;stroke-width:0.5;" x="19.963856" xlink:href="#m05394a8d20" y="289.318215"/>
      </g>
     </g>
     <g id="text_33">
      <!-- $0.4$ -->
      <g transform="translate(3.663856 292.35759)scale(0.08 -0.08)">
       <use transform="translate(0 0.78125)" xlink:href="#DejaVuSans-30"/>
       <use transform="translate(63.623047 0.78125)" xlink:href="#DejaVuSans-2e"/>
       <use transform="translate(95.410156 0.78125)" xlink:href="#DejaVuSans-34"/>
      </g>
     </g>
    </g>
    <g id="ytick_13">
     <g id="line2d_67">
      <path clip-path="url(#p334e398adb)" d="M 19.963856 233.794646 
L 296.365354 233.794646 
" style="fill:none;stroke:#000000;stroke-linecap:square;stroke-opacity:0.1;stroke-width:0.5;"/>
     </g>
     <g id="line2d_68">
      <g>
       <use style="stroke:#000000;stroke-width:0.5;" x="19.963856" xlink:href="#m05394a8d20" y="233.794646"/>
      </g>
     </g>
     <g id="text_34">
      <!-- $0.5$ -->
      <g transform="translate(3.663856 236.834021)scale(0.08 -0.08)">
       <use transform="translate(0 0.78125)" xlink:href="#DejaVuSans-30"/>
       <use transform="translate(63.623047 0.78125)" xlink:href="#DejaVuSans-2e"/>
       <use transform="translate(95.410156 0.78125)" xlink:href="#DejaVuSans-35"/>
      </g>
     </g>
    </g>
   </g>
   <g id="line2d_69">
    <path clip-path="url(#p334e398adb)" d="M 27.78654 317.811927 
L 38.651379 322.90118 
L 49.516217 329.398648 
L 60.381056 309.787763 
L 71.245895 307.870785 
L 82.110734 305.540738 
L 92.975572 266.139401 
L 103.840411 306.592572 
L 114.70525 309.774655 
L 125.570089 292.036504 
L 136.434928 312.720569 
L 147.299766 300.545995 
L 158.164605 307.320062 
L 169.029444 299.769649 
L 179.894283 274.628325 
L 190.759121 269.125722 
L 201.62396 279.802079 
L 212.488799 288.598101 
L 223.353638 289.349899 
L 234.218477 304.718206 
L 245.083315 297.868934 
L 255.948154 267.890986 
L 266.812993 276.110251 
L 277.677832 296.398491 
L 288.54267 274.128089 
" style="fill:none;stroke:#009afa;"/>
   </g>
   <g id="patch_11">
    <path d="M 19.963856 400.365354 
L 19.963856 233.794646 
" style="fill:none;stroke:#000000;stroke-linecap:square;stroke-linejoin:miter;"/>
   </g>
   <g id="patch_12">
    <path d="M 19.963856 400.365354 
L 296.365354 400.365354 
" style="fill:none;stroke:#000000;stroke-linecap:square;stroke-linejoin:miter;"/>
   </g>
   <g id="text_35">
    <!-- Scotland: Wage Gini -->
    <g transform="translate(117.874605 227.794646)scale(0.08 -0.08)">
     <defs>
      <path d="M 213 4666 
L 850 4666 
L 1831 722 
L 2809 4666 
L 3519 4666 
L 4500 722 
L 5478 4666 
L 6119 4666 
L 4947 0 
L 4153 0 
L 3169 4050 
L 2175 0 
L 1381 0 
L 213 4666 
z
" id="DejaVuSans-57" transform="scale(0.015625)"/>
      <path d="M 2906 1791 
Q 2906 2416 2648 2759 
Q 2391 3103 1925 3103 
Q 1463 3103 1205 2759 
Q 947 2416 947 1791 
Q 947 1169 1205 825 
Q 1463 481 1925 481 
Q 2391 481 2648 825 
Q 2906 1169 2906 1791 
z
M 3481 434 
Q 3481 -459 3084 -895 
Q 2688 -1331 1869 -1331 
Q 1566 -1331 1297 -1286 
Q 1028 -1241 775 -1147 
L 775 -588 
Q 1028 -725 1275 -790 
Q 1522 -856 1778 -856 
Q 2344 -856 2625 -561 
Q 2906 -266 2906 331 
L 2906 616 
Q 2728 306 2450 153 
Q 2172 0 1784 0 
Q 1141 0 747 490 
Q 353 981 353 1791 
Q 353 2603 747 3093 
Q 1141 3584 1784 3584 
Q 2172 3584 2450 3431 
Q 2728 3278 2906 2969 
L 2906 3500 
L 3481 3500 
L 3481 434 
z
" id="DejaVuSans-67" transform="scale(0.015625)"/>
      <path d="M 3597 1894 
L 3597 1613 
L 953 1613 
Q 991 1019 1311 708 
Q 1631 397 2203 397 
Q 2534 397 2845 478 
Q 3156 559 3463 722 
L 3463 178 
Q 3153 47 2828 -22 
Q 2503 -91 2169 -91 
Q 1331 -91 842 396 
Q 353 884 353 1716 
Q 353 2575 817 3079 
Q 1281 3584 2069 3584 
Q 2775 3584 3186 3129 
Q 3597 2675 3597 1894 
z
M 3022 2063 
Q 3016 2534 2758 2815 
Q 2500 3097 2075 3097 
Q 1594 3097 1305 2825 
Q 1016 2553 972 2059 
L 3022 2063 
z
" id="DejaVuSans-65" transform="scale(0.015625)"/>
     </defs>
     <use xlink:href="#DejaVuSans-53"/>
     <use x="63.476562" xlink:href="#DejaVuSans-63"/>
     <use x="118.457031" xlink:href="#DejaVuSans-6f"/>
     <use x="179.638672" xlink:href="#DejaVuSans-74"/>
     <use x="218.847656" xlink:href="#DejaVuSans-6c"/>
     <use x="246.630859" xlink:href="#DejaVuSans-61"/>
     <use x="307.910156" xlink:href="#DejaVuSans-6e"/>
     <use x="371.289062" xlink:href="#DejaVuSans-64"/>
     <use x="434.765625" xlink:href="#DejaVuSans-3a"/>
     <use x="468.457031" xlink:href="#DejaVuSans-20"/>
     <use x="500.244141" xlink:href="#DejaVuSans-57"/>
     <use x="592.746094" xlink:href="#DejaVuSans-61"/>
     <use x="654.025391" xlink:href="#DejaVuSans-67"/>
     <use x="717.501953" xlink:href="#DejaVuSans-65"/>
     <use x="779.025391" xlink:href="#DejaVuSans-20"/>
     <use x="810.8125" xlink:href="#DejaVuSans-47"/>
     <use x="888.302734" xlink:href="#DejaVuSans-69"/>
     <use x="916.085938" xlink:href="#DejaVuSans-6e"/>
     <use x="979.464844" xlink:href="#DejaVuSans-69"/>
    </g>
   </g>
   <g id="legend_3">
    <g id="patch_13">
     <path d="M 300.365354 424.907854 
L 362.036604 424.907854 
L 362.036604 404.365354 
L 300.365354 404.365354 
z
" style="fill:#ffffff;stroke:#000000;stroke-linejoin:miter;"/>
    </g>
    <g id="line2d_70">
     <path d="M 306.765354 414.044104 
L 322.765354 414.044104 
" style="fill:none;stroke:#009afa;stroke-linejoin:miter;"/>
    </g>
    <g id="line2d_71"/>
    <g id="text_36">
     <!-- Wages -->
     <g transform="translate(329.165354 416.844104)scale(0.08 -0.08)">
      <defs>
       <path d="M 2834 3397 
L 2834 2853 
Q 2591 2978 2328 3040 
Q 2066 3103 1784 3103 
Q 1356 3103 1142 2972 
Q 928 2841 928 2578 
Q 928 2378 1081 2264 
Q 1234 2150 1697 2047 
L 1894 2003 
Q 2506 1872 2764 1633 
Q 3022 1394 3022 966 
Q 3022 478 2636 193 
Q 2250 -91 1575 -91 
Q 1294 -91 989 -36 
Q 684 19 347 128 
L 347 722 
Q 666 556 975 473 
Q 1284 391 1588 391 
Q 1994 391 2212 530 
Q 2431 669 2431 922 
Q 2431 1156 2273 1281 
Q 2116 1406 1581 1522 
L 1381 1569 
Q 847 1681 609 1914 
Q 372 2147 372 2553 
Q 372 3047 722 3315 
Q 1072 3584 1716 3584 
Q 2034 3584 2315 3537 
Q 2597 3491 2834 3397 
z
" id="DejaVuSans-73" transform="scale(0.015625)"/>
      </defs>
      <use xlink:href="#DejaVuSans-57"/>
      <use x="92.501953" xlink:href="#DejaVuSans-61"/>
      <use x="153.78125" xlink:href="#DejaVuSans-67"/>
      <use x="217.257812" xlink:href="#DejaVuSans-65"/>
      <use x="278.78125" xlink:href="#DejaVuSans-73"/>
     </g>
    </g>
   </g>
  </g>
  <g id="axes_4">
   <g id="patch_14">
    <path d="M 384.733856 400.365354 
L 661.135354 400.365354 
L 661.135354 233.794646 
L 384.733856 233.794646 
z
" style="fill:#ffffff;"/>
   </g>
   <g id="matplotlib.axis_7">
    <g id="xtick_16">
     <g id="line2d_72">
      <path clip-path="url(#p7420c8c837)" d="M 403.421379 400.365354 
L 403.421379 233.794646 
" style="fill:none;stroke:#000000;stroke-linecap:square;stroke-opacity:0.1;stroke-width:0.5;"/>
     </g>
     <g id="line2d_73">
      <g>
       <use style="stroke:#000000;stroke-width:0.5;" x="403.421379" xlink:href="#m5d6f11f6f8" y="400.365354"/>
      </g>
     </g>
     <g id="text_37">
      <!-- $1995$ -->
      <g transform="translate(393.221379 409.944104)scale(0.08 -0.08)">
       <use transform="translate(0 0.78125)" xlink:href="#DejaVuSans-31"/>
       <use transform="translate(63.623047 0.78125)" xlink:href="#DejaVuSans-39"/>
       <use transform="translate(127.246094 0.78125)" xlink:href="#DejaVuSans-39"/>
       <use transform="translate(190.869141 0.78125)" xlink:href="#DejaVuSans-35"/>
      </g>
     </g>
    </g>
    <g id="xtick_17">
     <g id="line2d_74">
      <path clip-path="url(#p7420c8c837)" d="M 457.745572 400.365354 
L 457.745572 233.794646 
" style="fill:none;stroke:#000000;stroke-linecap:square;stroke-opacity:0.1;stroke-width:0.5;"/>
     </g>
     <g id="line2d_75">
      <g>
       <use style="stroke:#000000;stroke-width:0.5;" x="457.745572" xlink:href="#m5d6f11f6f8" y="400.365354"/>
      </g>
     </g>
     <g id="text_38">
      <!-- $2000$ -->
      <g transform="translate(447.545572 409.944104)scale(0.08 -0.08)">
       <use transform="translate(0 0.78125)" xlink:href="#DejaVuSans-32"/>
       <use transform="translate(63.623047 0.78125)" xlink:href="#DejaVuSans-30"/>
       <use transform="translate(127.246094 0.78125)" xlink:href="#DejaVuSans-30"/>
       <use transform="translate(190.869141 0.78125)" xlink:href="#DejaVuSans-30"/>
      </g>
     </g>
    </g>
    <g id="xtick_18">
     <g id="line2d_76">
      <path clip-path="url(#p7420c8c837)" d="M 512.069766 400.365354 
L 512.069766 233.794646 
" style="fill:none;stroke:#000000;stroke-linecap:square;stroke-opacity:0.1;stroke-width:0.5;"/>
     </g>
     <g id="line2d_77">
      <g>
       <use style="stroke:#000000;stroke-width:0.5;" x="512.069766" xlink:href="#m5d6f11f6f8" y="400.365354"/>
      </g>
     </g>
     <g id="text_39">
      <!-- $2005$ -->
      <g transform="translate(501.869766 409.944104)scale(0.08 -0.08)">
       <use transform="translate(0 0.78125)" xlink:href="#DejaVuSans-32"/>
       <use transform="translate(63.623047 0.78125)" xlink:href="#DejaVuSans-30"/>
       <use transform="translate(127.246094 0.78125)" xlink:href="#DejaVuSans-30"/>
       <use transform="translate(190.869141 0.78125)" xlink:href="#DejaVuSans-35"/>
      </g>
     </g>
    </g>
    <g id="xtick_19">
     <g id="line2d_78">
      <path clip-path="url(#p7420c8c837)" d="M 566.39396 400.365354 
L 566.39396 233.794646 
" style="fill:none;stroke:#000000;stroke-linecap:square;stroke-opacity:0.1;stroke-width:0.5;"/>
     </g>
     <g id="line2d_79">
      <g>
       <use style="stroke:#000000;stroke-width:0.5;" x="566.39396" xlink:href="#m5d6f11f6f8" y="400.365354"/>
      </g>
     </g>
     <g id="text_40">
      <!-- $2010$ -->
      <g transform="translate(556.19396 409.944104)scale(0.08 -0.08)">
       <use transform="translate(0 0.78125)" xlink:href="#DejaVuSans-32"/>
       <use transform="translate(63.623047 0.78125)" xlink:href="#DejaVuSans-30"/>
       <use transform="translate(127.246094 0.78125)" xlink:href="#DejaVuSans-31"/>
       <use transform="translate(190.869141 0.78125)" xlink:href="#DejaVuSans-30"/>
      </g>
     </g>
    </g>
    <g id="xtick_20">
     <g id="line2d_80">
      <path clip-path="url(#p7420c8c837)" d="M 620.718154 400.365354 
L 620.718154 233.794646 
" style="fill:none;stroke:#000000;stroke-linecap:square;stroke-opacity:0.1;stroke-width:0.5;"/>
     </g>
     <g id="line2d_81">
      <g>
       <use style="stroke:#000000;stroke-width:0.5;" x="620.718154" xlink:href="#m5d6f11f6f8" y="400.365354"/>
      </g>
     </g>
     <g id="text_41">
      <!-- $2015$ -->
      <g transform="translate(610.518154 409.944104)scale(0.08 -0.08)">
       <use transform="translate(0 0.78125)" xlink:href="#DejaVuSans-32"/>
       <use transform="translate(63.623047 0.78125)" xlink:href="#DejaVuSans-30"/>
       <use transform="translate(127.246094 0.78125)" xlink:href="#DejaVuSans-31"/>
       <use transform="translate(190.869141 0.78125)" xlink:href="#DejaVuSans-35"/>
      </g>
     </g>
    </g>
   </g>
   <g id="matplotlib.axis_8">
    <g id="ytick_14">
     <g id="line2d_82">
      <path clip-path="url(#p7420c8c837)" d="M 384.733856 400.365354 
L 661.135354 400.365354 
" style="fill:none;stroke:#000000;stroke-linecap:square;stroke-opacity:0.1;stroke-width:0.5;"/>
     </g>
     <g id="line2d_83">
      <g>
       <use style="stroke:#000000;stroke-width:0.5;" x="384.733856" xlink:href="#m05394a8d20" y="400.365354"/>
      </g>
     </g>
     <g id="text_42">
      <!-- $0.2$ -->
      <g transform="translate(368.913856 403.404729)scale(0.08 -0.08)">
       <use transform="translate(0 0.78125)" xlink:href="#DejaVuSans-30"/>
       <use transform="translate(63.623047 0.78125)" xlink:href="#DejaVuSans-2e"/>
       <use transform="translate(89.910156 0.78125)" xlink:href="#DejaVuSans-32"/>
      </g>
     </g>
    </g>
    <g id="ytick_15">
     <g id="line2d_84">
      <path clip-path="url(#p7420c8c837)" d="M 384.733856 344.841785 
L 661.135354 344.841785 
" style="fill:none;stroke:#000000;stroke-linecap:square;stroke-opacity:0.1;stroke-width:0.5;"/>
     </g>
     <g id="line2d_85">
      <g>
       <use style="stroke:#000000;stroke-width:0.5;" x="384.733856" xlink:href="#m05394a8d20" y="344.841785"/>
      </g>
     </g>
     <g id="text_43">
      <!-- $0.3$ -->
      <g transform="translate(368.433856 347.88116)scale(0.08 -0.08)">
       <use transform="translate(0 0.78125)" xlink:href="#DejaVuSans-30"/>
       <use transform="translate(63.623047 0.78125)" xlink:href="#DejaVuSans-2e"/>
       <use transform="translate(95.410156 0.78125)" xlink:href="#DejaVuSans-33"/>
      </g>
     </g>
    </g>
    <g id="ytick_16">
     <g id="line2d_86">
      <path clip-path="url(#p7420c8c837)" d="M 384.733856 289.318215 
L 661.135354 289.318215 
" style="fill:none;stroke:#000000;stroke-linecap:square;stroke-opacity:0.1;stroke-width:0.5;"/>
     </g>
     <g id="line2d_87">
      <g>
       <use style="stroke:#000000;stroke-width:0.5;" x="384.733856" xlink:href="#m05394a8d20" y="289.318215"/>
      </g>
     </g>
     <g id="text_44">
      <!-- $0.4$ -->
      <g transform="translate(368.433856 292.35759)scale(0.08 -0.08)">
       <use transform="translate(0 0.78125)" xlink:href="#DejaVuSans-30"/>
       <use transform="translate(63.623047 0.78125)" xlink:href="#DejaVuSans-2e"/>
       <use transform="translate(95.410156 0.78125)" xlink:href="#DejaVuSans-34"/>
      </g>
     </g>
    </g>
    <g id="ytick_17">
     <g id="line2d_88">
      <path clip-path="url(#p7420c8c837)" d="M 384.733856 233.794646 
L 661.135354 233.794646 
" style="fill:none;stroke:#000000;stroke-linecap:square;stroke-opacity:0.1;stroke-width:0.5;"/>
     </g>
     <g id="line2d_89">
      <g>
       <use style="stroke:#000000;stroke-width:0.5;" x="384.733856" xlink:href="#m05394a8d20" y="233.794646"/>
      </g>
     </g>
     <g id="text_45">
      <!-- $0.5$ -->
      <g transform="translate(368.433856 236.834021)scale(0.08 -0.08)">
       <use transform="translate(0 0.78125)" xlink:href="#DejaVuSans-30"/>
       <use transform="translate(63.623047 0.78125)" xlink:href="#DejaVuSans-2e"/>
       <use transform="translate(95.410156 0.78125)" xlink:href="#DejaVuSans-35"/>
      </g>
     </g>
    </g>
   </g>
   <g id="line2d_90">
    <path clip-path="url(#p7420c8c837)" d="M 392.55654 324.140192 
L 403.421379 327.998389 
L 414.286217 326.365682 
L 425.151056 319.176605 
L 436.015895 321.424292 
L 446.880734 311.317169 
L 457.745572 305.992429 
L 468.610411 325.851349 
L 479.47525 321.556006 
L 490.340089 324.317924 
L 501.204928 330.321247 
L 512.069766 321.13953 
L 522.934605 315.221273 
L 533.799444 310.720123 
L 544.664283 304.166083 
L 555.529121 306.750005 
L 566.39396 324.030094 
L 577.258799 318.878454 
L 588.123638 318.249565 
L 598.988477 323.562572 
L 609.853315 321.323638 
L 620.718154 300.674637 
L 631.582993 315.734295 
L 642.447832 316.143697 
L 653.31267 311.843558 
" style="fill:none;stroke:#009afa;"/>
   </g>
   <g id="line2d_91">
    <path clip-path="url(#p7420c8c837)" d="M 392.55654 339.877827 
L 403.421379 342.824281 
L 414.286217 342.704674 
L 425.151056 335.415189 
L 436.015895 338.927531 
L 446.880734 328.545644 
L 457.745572 322.890804 
L 468.610411 340.872255 
L 479.47525 338.415221 
L 490.340089 340.144078 
L 501.204928 347.219721 
L 512.069766 338.331671 
L 522.934605 333.922902 
L 533.799444 327.880496 
L 544.664283 323.798097 
L 555.529121 325.803159 
L 566.39396 342.105664 
L 577.258799 338.588473 
L 588.123638 340.013769 
L 598.988477 343.806441 
L 609.853315 340.919439 
L 620.718154 322.001667 
L 631.582993 335.473482 
L 642.447832 335.57425 
L 653.31267 330.637778 
" style="fill:none;stroke:#e36f47;"/>
   </g>
   <g id="patch_15">
    <path d="M 384.733856 400.365354 
L 384.733856 233.794646 
" style="fill:none;stroke:#000000;stroke-linecap:square;stroke-linejoin:miter;"/>
   </g>
   <g id="patch_16">
    <path d="M 384.733856 400.365354 
L 661.135354 400.365354 
" style="fill:none;stroke:#000000;stroke-linecap:square;stroke-linejoin:miter;"/>
   </g>
   <g id="line2d_92">
    <path clip-path="url(#p7420c8c837)" d="M 392.55654 303.831723 
L 403.421379 304.617334 
L 414.286217 303.647905 
L 425.151056 300.609548 
L 436.015895 297.269824 
L 446.880734 298.285564 
L 457.745572 294.967676 
L 468.610411 299.202935 
L 479.47525 301.960179 
L 490.340089 302.909105 
L 501.204928 301.685683 
L 512.069766 297.420111 
L 522.934605 293.081037 
L 533.799444 288.046238 
L 544.664283 286.759632 
L 555.529121 286.8369 
L 566.39396 298.56051 
L 577.258799 296.633259 
L 588.123638 298.475532 
L 598.988477 293.824725 
L 609.853315 295.99797 
L 620.718154 291.299983 
L 631.582993 296.795643 
L 642.447832 296.105145 
L 653.31267 291.103653 
" style="fill:none;stroke:#3ea44e;"/>
   </g>
   <g id="text_46">
    <!-- Scotland vs GB (Gini) -->
    <g transform="translate(480.45648 227.794646)scale(0.08 -0.08)">
     <defs>
      <path d="M 191 3500 
L 800 3500 
L 1894 563 
L 2988 3500 
L 3597 3500 
L 2284 0 
L 1503 0 
L 191 3500 
z
" id="DejaVuSans-76" transform="scale(0.015625)"/>
      <path d="M 1984 4856 
Q 1566 4138 1362 3434 
Q 1159 2731 1159 2009 
Q 1159 1288 1364 580 
Q 1569 -128 1984 -844 
L 1484 -844 
Q 1016 -109 783 600 
Q 550 1309 550 2009 
Q 550 2706 781 3412 
Q 1013 4119 1484 4856 
L 1984 4856 
z
" id="DejaVuSans-28" transform="scale(0.015625)"/>
      <path d="M 513 4856 
L 1013 4856 
Q 1481 4119 1714 3412 
Q 1947 2706 1947 2009 
Q 1947 1309 1714 600 
Q 1481 -109 1013 -844 
L 513 -844 
Q 928 -128 1133 580 
Q 1338 1288 1338 2009 
Q 1338 2731 1133 3434 
Q 928 4138 513 4856 
z
" id="DejaVuSans-29" transform="scale(0.015625)"/>
     </defs>
     <use xlink:href="#DejaVuSans-53"/>
     <use x="63.476562" xlink:href="#DejaVuSans-63"/>
     <use x="118.457031" xlink:href="#DejaVuSans-6f"/>
     <use x="179.638672" xlink:href="#DejaVuSans-74"/>
     <use x="218.847656" xlink:href="#DejaVuSans-6c"/>
     <use x="246.630859" xlink:href="#DejaVuSans-61"/>
     <use x="307.910156" xlink:href="#DejaVuSans-6e"/>
     <use x="371.289062" xlink:href="#DejaVuSans-64"/>
     <use x="434.765625" xlink:href="#DejaVuSans-20"/>
     <use x="466.552734" xlink:href="#DejaVuSans-76"/>
     <use x="525.732422" xlink:href="#DejaVuSans-73"/>
     <use x="577.832031" xlink:href="#DejaVuSans-20"/>
     <use x="609.619141" xlink:href="#DejaVuSans-47"/>
     <use x="687.109375" xlink:href="#DejaVuSans-42"/>
     <use x="755.712891" xlink:href="#DejaVuSans-20"/>
     <use x="787.5" xlink:href="#DejaVuSans-28"/>
     <use x="826.513672" xlink:href="#DejaVuSans-47"/>
     <use x="904.003906" xlink:href="#DejaVuSans-69"/>
     <use x="931.787109" xlink:href="#DejaVuSans-6e"/>
     <use x="995.166016" xlink:href="#DejaVuSans-69"/>
     <use x="1022.949219" xlink:href="#DejaVuSans-29"/>
    </g>
   </g>
   <g id="line2d_93">
    <path clip-path="url(#p7420c8c837)" d="M 392.55654 326.81511 
L 403.421379 326.461312 
L 414.286217 326.426229 
L 425.151056 322.387508 
L 436.015895 318.011766 
L 446.880734 319.236202 
L 457.745572 315.474258 
L 468.610411 317.850147 
L 479.47525 320.466833 
L 490.340089 322.769151 
L 501.204928 322.280345 
L 512.069766 319.679349 
L 522.934605 316.030536 
L 533.799444 312.51452 
L 544.664283 313.427511 
L 555.529121 312.976091 
L 566.39396 324.070381 
L 577.258799 322.443332 
L 588.123638 324.537977 
L 598.988477 321.044922 
L 609.853315 322.660687 
L 620.718154 318.61787 
L 631.582993 324.41252 
L 642.447832 321.447599 
L 653.31267 316.52215 
" style="fill:none;stroke:#c371d2;"/>
   </g>
   <g id="legend_4">
    <g id="patch_17">
     <path d="M 665.135354 460.135354 
L 734.494104 460.135354 
L 734.494104 404.365354 
L 665.135354 404.365354 
z
" style="fill:#ffffff;stroke:#000000;stroke-linejoin:miter;"/>
    </g>
    <g id="line2d_94">
     <path d="M 671.535354 414.044104 
L 687.535354 414.044104 
" style="fill:none;stroke:#009afa;stroke-linejoin:miter;"/>
    </g>
    <g id="line2d_95"/>
    <g id="text_47">
     <!-- Sco:AHC -->
     <g transform="translate(693.935354 416.844104)scale(0.08 -0.08)">
      <use xlink:href="#DejaVuSans-53"/>
      <use x="63.476562" xlink:href="#DejaVuSans-63"/>
      <use x="118.457031" xlink:href="#DejaVuSans-6f"/>
      <use x="179.638672" xlink:href="#DejaVuSans-3a"/>
      <use x="213.330078" xlink:href="#DejaVuSans-41"/>
      <use x="281.738281" xlink:href="#DejaVuSans-48"/>
      <use x="356.933594" xlink:href="#DejaVuSans-43"/>
     </g>
    </g>
    <g id="line2d_96">
     <path d="M 671.535354 425.786604 
L 687.535354 425.786604 
" style="fill:none;stroke:#e36f47;stroke-linejoin:miter;"/>
    </g>
    <g id="line2d_97"/>
    <g id="text_48">
     <!-- Sco:BHC -->
     <g transform="translate(693.935354 428.586604)scale(0.08 -0.08)">
      <use xlink:href="#DejaVuSans-53"/>
      <use x="63.476562" xlink:href="#DejaVuSans-63"/>
      <use x="118.457031" xlink:href="#DejaVuSans-6f"/>
      <use x="179.638672" xlink:href="#DejaVuSans-3a"/>
      <use x="213.330078" xlink:href="#DejaVuSans-42"/>
      <use x="281.933594" xlink:href="#DejaVuSans-48"/>
      <use x="357.128906" xlink:href="#DejaVuSans-43"/>
     </g>
    </g>
    <g id="line2d_98">
     <path d="M 671.535354 437.529104 
L 687.535354 437.529104 
" style="fill:none;stroke:#3ea44e;stroke-linejoin:miter;"/>
    </g>
    <g id="line2d_99"/>
    <g id="text_49">
     <!-- GB:AHC -->
     <g transform="translate(693.935354 440.329104)scale(0.08 -0.08)">
      <use xlink:href="#DejaVuSans-47"/>
      <use x="77.490234" xlink:href="#DejaVuSans-42"/>
      <use x="146.09375" xlink:href="#DejaVuSans-3a"/>
      <use x="179.785156" xlink:href="#DejaVuSans-41"/>
      <use x="248.193359" xlink:href="#DejaVuSans-48"/>
      <use x="323.388672" xlink:href="#DejaVuSans-43"/>
     </g>
    </g>
    <g id="line2d_100">
     <path d="M 671.535354 449.271604 
L 687.535354 449.271604 
" style="fill:none;stroke:#c371d2;stroke-linejoin:miter;"/>
    </g>
    <g id="line2d_101"/>
    <g id="text_50">
     <!-- GB:BHC -->
     <g transform="translate(693.935354 452.071604)scale(0.08 -0.08)">
      <use xlink:href="#DejaVuSans-47"/>
      <use x="77.490234" xlink:href="#DejaVuSans-42"/>
      <use x="146.09375" xlink:href="#DejaVuSans-3a"/>
      <use x="179.785156" xlink:href="#DejaVuSans-42"/>
      <use x="248.388672" xlink:href="#DejaVuSans-48"/>
      <use x="323.583984" xlink:href="#DejaVuSans-43"/>
     </g>
    </g>
   </g>
  </g>
 </g>
 <defs>
  <clipPath id="p8efbcc5279">
   <rect height="166.570709" width="276.401498" x="19.963856" y="14.594646"/>
  </clipPath>
  <clipPath id="p79366d0cb2">
   <rect height="166.570709" width="276.401498" x="384.733856" y="14.594646"/>
  </clipPath>
  <clipPath id="p334e398adb">
   <rect height="166.570709" width="276.401498" x="19.963856" y="233.794646"/>
  </clipPath>
  <clipPath id="p7420c8c837">
   <rect height="166.570709" width="276.401498" x="384.733856" y="233.794646"/>
  </clipPath>
 </defs>
</svg>
